<svg width="64" height="64" viewBox="0 0 64 64" fill="none" xmlns="http://www.w3.org/2000/svg">
    <!-- 
    Fundo Circular:
    Cor: Creme Suave (#F9F7F2) para garantir contraste em qualquer fundo de navegador.
    -->
    <circle cx="32" cy="32" r="32" fill="#F9F7F2"/>
    
    <!-- 
    Ícone Centralizado
    Escalado para caber perfeitamente no quadrado 64x64.
    Fator de escala: 0.75x
    -->
    <g transform="translate(11, 10) scale(0.75)">
        <!-- Bulbo de Vidro -->
        <path d="M28 2C15.8497 2 6 11.8497 6 24C6 31.5 10 37.5 14.5 42C17.5 45 19 47 19 50H37C37 47 38.5 45 41.5 42C46 37.5 50 31.5 50 24C50 11.8497 40.1503 2 28 2Z" stroke="#2E2E2E" stroke-width="3" stroke-linecap="round" stroke-linejoin="round"/>
        
        <!-- Base da Lâmpada (Rosca) -->
        <path d="M21 50H35V54H21V50Z" fill="#7D8C76" stroke="#2E2E2E" stroke-width="2.5"/> 
        <path d="M23 54H33V57C33 58.6569 31.6569 60 30 60H26C24.3431 60 23 58.6569 23 57V54Z" fill="#2E2E2E"/>
        
        <!-- Filamento Amarelo -->
        <path d="M20 34C20 34 22 28 24 28C26 28 26 34 28 34C30 34 30 28 32 28C34 28 36 34 36 34" stroke="#EAC435" stroke-width="3" stroke-linecap="round" stroke-linejoin="round"/>
        <circle cx="20" cy="34" r="2" fill="#EAC435"/>
        <circle cx="36" cy="34" r="2" fill="#EAC435"/>
        
        <!-- Brilho -->
        <path d="M28 8V5" stroke="#EAC435" stroke-width="3" stroke-linecap="round"/>
        <path d="M44 10L46 8" stroke="#EAC435" stroke-width="3" stroke-linecap="round"/>
        <path d="M12 10L10 8" stroke="#EAC435" stroke-width="3" stroke-linecap="round"/>
    </g>
</svg>
