<svg width="200" height="80" viewBox="0 0 200 80" fill="none" xmlns="http://www.w3.org/2000/svg">
    <!-- 
    Fundo removido para transparência.
    As cores (Bege Claro e Amarelo) são otimizadas para serem vistas sobre fundos escuros.
    -->

    <!-- ÍCONE: LÂMPADA VINTAGE (Adaptada para Fundo Escuro) -->
    <g transform="translate(15, 10)">
        <!-- Bulbo de Vidro: Traço Bege Claro (#EAE0D5) -->
        <path d="M28 2C15.8497 2 6 11.8497 6 24C6 31.5 10 37.5 14.5 42C17.5 45 19 47 19 50H37C37 47 38.5 45 41.5 42C46 37.5 50 31.5 50 24C50 11.8497 40.1503 2 28 2Z" stroke="#EAE0D5" stroke-width="2.5" stroke-linecap="round" stroke-linejoin="round"/>
        
        <!-- Base da Lâmpada (Rosca) -->
        <path d="M21 50H35V54H21V50Z" fill="#7D8C76" stroke="#EAE0D5" stroke-width="2"/> 
        <path d="M23 54H33V57C33 58.6569 31.6569 60 30 60H26C24.3431 60 23 58.6569 23 57V54Z" fill="#EAE0D5"/>
        
        <!-- Filamento (Amarelo Suave #EAC435) -->
        <path d="M20 34C20 34 22 28 24 28C26 28 26 34 28 34C30 34 30 28 32 28C34 28 36 34 36 34" stroke="#EAC435" stroke-width="2.5" stroke-linecap="round" stroke-linejoin="round"/>
        <circle cx="20" cy="34" r="1.5" fill="#EAC435"/>
        <circle cx="36" cy="34" r="1.5" fill="#EAC435"/>
        
        <!-- Brilho/Luz -->
        <path d="M28 8V5" stroke="#EAC435" stroke-width="2.5" stroke-linecap="round"/>
        <path d="M44 10L46 8" stroke="#EAC435" stroke-width="2.5" stroke-linecap="round"/>
        <path d="M12 10L10 8" stroke="#EAC435" stroke-width="2.5" stroke-linecap="round"/>
    </g>

    <!-- TEXTO: Lume -->
    <!-- Fonte Lora, cor Bege Claro (#EAE0D5) -->
    <text x="70" y="52" font-family="'Lora', serif" font-weight="700" font-size="42" fill="#EAE0D5" letter-spacing="-1">Lume</text>
</svg>
